<svg width="11" height="11" viewBox="0 0 11 11" fill="none" xmlns="http://www.w3.org/2000/svg">
<path d="M7.70996 5.87988C7.8733 5.87993 8.01454 5.90947 8.13379 5.96777C8.25318 6.02644 8.35136 6.10828 8.42676 6.21484L8.15723 6.54199C8.05353 6.39181 7.91363 6.31654 7.7373 6.31641C7.64105 6.31641 7.55685 6.3439 7.48535 6.39844C7.41394 6.45296 7.35432 6.52612 7.30762 6.61816C7.26095 6.71041 7.22648 6.8175 7.20312 6.93945C7.17976 7.06155 7.16798 7.19028 7.16797 7.3252C7.16797 7.46545 7.17975 7.59741 7.20312 7.7207C7.22648 7.84408 7.26094 7.95189 7.30762 8.04395C7.3546 8.1363 7.41385 8.20872 7.48535 8.26074C7.55653 8.31266 7.64164 8.33784 7.74023 8.33789C7.80257 8.33789 7.85951 8.33084 7.91016 8.31641C7.96045 8.30226 8.00118 8.28394 8.03223 8.26074V7.54785H7.69727C7.69727 7.54785 7.69759 7.15527 7.69824 7.14258H8.45801V8.54102C8.37514 8.60855 8.2755 8.66264 8.16016 8.7041C8.04449 8.74556 7.90611 8.76658 7.74512 8.7666C7.58149 8.7666 7.43462 8.73207 7.30469 8.66309C7.1748 8.59434 7.06516 8.49629 6.97559 8.36914C6.88606 8.24205 6.81667 8.09057 6.76855 7.91406C6.72043 7.73737 6.69629 7.54084 6.69629 7.3252C6.6963 7.11499 6.71991 6.92169 6.7666 6.74512C6.81335 6.56843 6.8815 6.4159 6.96973 6.28711C7.05794 6.15859 7.16443 6.05879 7.28906 5.9873C7.41371 5.91606 7.55415 5.87988 7.70996 5.87988Z" fill="#5E5D67"/>
<path fill-rule="evenodd" clip-rule="evenodd" d="M3.36914 5.9502C3.4573 5.95022 3.54818 5.96338 3.6416 5.98926C3.73515 6.01511 3.81866 6.05975 3.89258 6.12305C3.9666 6.18676 4.02805 6.27119 4.07617 6.375C4.12422 6.47877 4.14844 6.60894 4.14844 6.76465C4.1484 6.90475 4.1268 7.02771 4.08398 7.13281C4.04092 7.23806 3.9841 7.32547 3.91406 7.39551C3.84403 7.46549 3.76367 7.51712 3.67285 7.55078C3.58196 7.58444 3.4885 7.60153 3.39258 7.60156H3.06543V8.70801H2.60547V5.9502H3.36914ZM3.06543 7.21973H3.33008C3.43897 7.21973 3.52856 7.18197 3.59863 7.10547C3.6687 7.02899 3.70405 6.91642 3.7041 6.76855C3.7041 6.62054 3.66873 6.51292 3.59863 6.44531C3.52851 6.37771 3.43916 6.34375 3.33008 6.34375H3.06543V7.21973Z" fill="#5E5D67"/>
<path d="M5.06738 5.9502L5.84277 7.91016H5.85449L5.85059 5.9502H6.25586V8.70801H5.74121L4.95898 6.76074H4.94727L4.95508 8.70801H4.53418V5.9502H5.06738Z" fill="#5E5D67"/>
<path fill-rule="evenodd" clip-rule="evenodd" d="M7.34668 0.00292969C7.36753 0.00407552 7.38775 0.00777344 7.40723 0.0146484C7.41428 0.0169199 7.42091 0.0192772 7.42773 0.0224609C7.45226 0.0334609 7.47541 0.0476745 7.49512 0.0673828L9.55762 2.12988C9.5773 2.14958 9.59132 2.173 9.60254 2.19727C9.60587 2.20426 9.60787 2.21153 9.61035 2.21875L9.625 2.29199V3.57227L10.9326 4.87988C10.9518 4.89887 10.9666 4.92153 10.9775 4.94531C10.9807 4.95241 10.9828 4.95948 10.9854 4.9668C10.9922 4.98647 10.9957 5.00653 10.9971 5.02734C10.9975 5.03239 11 5.03695 11 5.04199V9.39551C11 9.52201 10.897 9.625 10.7705 9.625H9.625V10.7705C9.625 10.897 9.52201 11 9.39551 11H1.60449C1.47799 11 1.375 10.897 1.375 10.7705V9.625H0.229492C0.102992 9.625 0 9.52201 0 9.39551V5.04199C0 5.03695 0.00247135 5.03239 0.00292969 5.02734C0.00408357 5.00653 0.00876152 4.98647 0.015625 4.9668C0.018095 4.95957 0.0193028 4.95232 0.0224609 4.94531C0.0334437 4.92175 0.0472037 4.89911 0.0664062 4.87988L1.375 3.57227V0.229492C1.375 0.102992 1.47799 0 1.60449 0H7.33301C7.33779 0 7.34235 0.00222825 7.34668 0.00292969ZM1.83301 10.542H9.16699V9.625H1.83301V10.542ZM0.458008 9.16699H10.542V5.27051H0.458008V9.16699ZM0.782227 4.8125H1.375V4.21973L0.782227 4.8125ZM1.83301 4.8125H9.16699V2.52051H7.33301C7.20682 2.52027 7.10467 2.41819 7.10449 2.29199V0.458008H1.83301V4.8125ZM9.625 4.8125H10.2178L9.625 4.21973V4.8125ZM7.5625 2.0625H8.84277L7.5625 0.782227V2.0625Z" fill="#5E5D67"/>
</svg>
